<?xml version="1.0" encoding="UTF-8"?>
<svg xmlns="http://www.w3.org/2000/svg" version="1.1" viewBox="0 0 44.9 44.9">
  <defs>
    <style>
      .cls-1 {
        fill: none;
        stroke-width: .8px;
      }

      .cls-1, .cls-2 {
        stroke: #0060fc;
        stroke-miterlimit: 10;
      }

      .cls-3, .cls-2 {
        fill: #0060fc;
      }

      .cls-2 {
        stroke-width: .3px;
      }

      .cls-4 {
        fill: #009cfc;
        opacity: .2;
      }
    </style>
  </defs>
  <!-- Generator: Adobe Illustrator 28.6.0, SVG Export Plug-In . SVG Version: 1.2.0 Build 709)  -->
  <g>
    <g id="Layer_1">
      <rect class="cls-4" x="0" y="0" width="44.8" height="44.8" rx="2" ry="2"/>
      <g>
        <g>
          <path class="cls-2" d="M14.4,27.6c0,0,.2-.2.2-.3v-.4l-3.6,1.9c0,0-.1.2-.1.3h0c0,.2,0,.3.1.3l3.6,1.9v-.4c0-.1,0-.2-.2-.3l-3-1.5h0s3-1.5,3-1.5Z"/>
          <path class="cls-2" d="M17.6,25.7c-.1,0-.2,0-.3.2l-2.2,5.7h.3c.1,0,.2,0,.3-.2l2.2-5.7h-.4Z"/>
          <path class="cls-2" d="M22.1,28.8l-3.6-1.9v.4c0,.1,0,.2.2.3l3,1.5h0s-3,1.5-3,1.5c0,0-.2.2-.2.3v.4l3.6-1.8c0,0,.2-.2.2-.3h0c0-.2,0-.3-.2-.4Z"/>
        </g>
        <path class="cls-3" d="M22.5,20.1h-11.9c-1.4,0-2.6,1.2-2.6,2.6v11.9c0,1.4,1.2,2.6,2.6,2.6h11.9c1.4,0,2.6-1.2,2.6-2.6v-11.9c0-1.4-1.2-2.6-2.6-2.6ZM24.1,34.6c0,.9-.7,1.6-1.6,1.6h-11.9c-.9,0-1.6-.7-1.6-1.6v-11.9c0-.9.7-1.6,1.6-1.6h11.9c.9,0,1.6.7,1.6,1.6v11.9Z"/>
      </g>
      <g>
        <g>
          <path class="cls-2" d="M26.8,14.7c.1,0,.2-.2.2-.3v-.4l-3.6,1.9c-.1,0-.2.2-.2.3h0c0,.2,0,.3.2.3l3.6,1.9v-.4c0-.1,0-.2-.2-.3l-3-1.5h0s3-1.5,3-1.5Z"/>
          <path class="cls-2" d="M29.9,12.8c-.1,0-.2,0-.3.2l-2.2,5.7h.3c.1,0,.2,0,.3-.2l2.2-5.7h-.3Z"/>
          <path class="cls-2" d="M34.4,15.9l-3.6-1.8v.4c0,.1,0,.2.2.3l3.1,1.5h0s-3.1,1.5-3.1,1.5c0,0-.2.2-.2.3v.4l3.6-1.9c0,0,.2-.1.2-.3h0c0-.2,0-.3-.2-.4Z"/>
        </g>
        <path class="cls-3" d="M34.8,7.2h-11.9c-1.4,0-2.6,1.2-2.6,2.6v11.3h1v-11.3c0-.9.7-1.6,1.6-1.6h11.9c.9,0,1.6.7,1.6,1.6v11.9c0,.9-.7,1.6-1.6,1.6h-10.8v1h10.8c1.4,0,2.6-1.2,2.6-2.6v-11.9c0-1.4-1.2-2.6-2.6-2.6Z"/>
      </g>
      <g>
        <path class="cls-1" d="M11.5,17.4v-4.7c0-.2.1-.3.3-.3h4.7"/>
        <polyline class="cls-3" points="16.4 10.9 17.9 12.5 16.4 14"/>
      </g>
      <g>
        <path class="cls-1" d="M34.3,26.4v4.7c0,.2-.1.3-.3.3h-4.7"/>
        <polyline class="cls-3" points="29.5 32.9 27.9 31.3 29.5 29.8"/>
      </g>
    </g>
  </g>
</svg>