<?xml version="1.0" encoding="UTF-8"?>
<svg xmlns="http://www.w3.org/2000/svg" version="1.1" viewBox="0 0 44.9 44.9">
  <defs>
    <style>
      .cls-1 {
        fill: #0060fc;
        stroke: #0060fc;
        stroke-miterlimit: 10;
      }

      .cls-2 {
        fill: #009cfc;
        opacity: .2;
      }
    </style>
  </defs>
  <!-- Generator: Adobe Illustrator 28.6.0, SVG Export Plug-In . SVG Version: 1.2.0 Build 709)  -->
  <g>
    <g id="Layer_1">
      <rect class="cls-2" x="0" y="0" width="44.8" height="44.8" rx="2" ry="2"/>
      <g>
        <path class="cls-1" d="M5.6,23.7c0-.3.2-.6.5-.8l10.7-5.5v1.1c0,.3-.2.6-.5.8l-8.9,4.5h0s8.9,4.5,8.9,4.5c.3.1.5.4.5.8v1.1l-10.7-5.5c-.3-.1-.5-.4-.5-.8v-.2Z"/>
        <path class="cls-1" d="M18.3,31.2l6.5-16.9c.1-.3.4-.6.8-.6h1l-6.5,16.9c-.1.3-.4.6-.8.6h-1Z"/>
        <path class="cls-1" d="M39.4,23.9c0,.3-.2.6-.5.8l-10.7,5.5v-1.1c0-.3.2-.6.5-.8l9-4.5h0s-9-4.5-9-4.5c-.3-.1-.5-.4-.5-.8v-1.1l10.7,5.5c.3.1.5.4.5.8v.3Z"/>
      </g>
    </g>
  </g>
</svg>