<?xml version="1.0" encoding="UTF-8"?>
<svg xmlns="http://www.w3.org/2000/svg" version="1.1" viewBox="0 0 24 24">
  <defs>
    <style>
      .cls-1 {
        fill: #ea4335;
      }

      .cls-2 {
        fill: #fff;
      }

      .cls-3 {
        fill: #4285f4;
      }

      .cls-4 {
        fill: none;
      }

      .cls-5 {
        fill: #34a853;
      }

      .cls-6 {
        fill: #fbbc05;
      }
    </style>
  </defs>
  <!-- Generator: Adobe Illustrator 28.6.0, SVG Export Plug-In . SVG Version: 1.2.0 Build 709)  -->
  <g>
    <g id="Layer_1">
      <rect class="cls-2" x="1.4" y="1.5" width="21" height="21" rx="1.1" ry="1.1"/>
      <g>
        <path class="cls-3" d="M19.8,12.2c0-.6,0-1.2-.2-1.7h-7.8v3.2h4.5c-.2,1-.8,1.9-1.7,2.5v2.1h2.7c1.6-1.4,2.5-3.6,2.5-6.1Z"/>
        <path class="cls-5" d="M11.9,20.3c2.2,0,4.1-.7,5.5-2l-2.7-2.1c-.7.5-1.7.8-2.8.8-2.2,0-4-1.5-4.6-3.4h-2.8v2.1c1.4,2.7,4.2,4.6,7.4,4.6Z"/>
        <path class="cls-6" d="M7.2,13.6c-.2-.5-.3-1-.3-1.6s0-1.1.3-1.6v-2.1h-2.8c-.6,1.1-.9,2.4-.9,3.7s.3,2.6.9,3.7l2.1-1.7s.6-.5.6-.5Z"/>
        <path class="cls-1" d="M11.9,7c1.2,0,2.3.4,3.2,1.2l2.4-2.4c-1.4-1.3-3.3-2.2-5.5-2.2-3.2,0-6,1.9-7.4,4.6l2.8,2.1c.7-2,2.5-3.4,4.6-3.4Z"/>
        <path class="cls-4" d="M3.6,3.7h16.6v16.6H3.6V3.7Z"/>
      </g>
    </g>
  </g>
</svg>